<svg xmlns="http://www.w3.org/2000/svg" version="1.1" xmlns:xlink="http://www.w3.org/1999/xlink" xmlns:svgjs="http://svgjs.dev/svgjs" width="500" height="300" preserveAspectRatio="none" viewBox="0 0 500 300"><g mask="url(&quot;#SvgjsMask5205&quot;)" fill="none"><rect width="500" height="300" x="0" y="0" fill="url(&quot;#SvgjsLinearGradient5206&quot;)"></rect><g><path d="M65 165L115 165L175 225L255 225" stroke-width="1.67" stroke="rgba(89, 64, 0, 0.37)"></path><path d="M63.33 165 a1.67 1.67 0 1 0 3.34 0 a1.67 1.67 0 1 0 -3.34 0zM253.33 225 a1.67 1.67 0 1 0 3.34 0 a1.67 1.67 0 1 0 -3.34 0z" fill="rgba(89, 64, 0, 0.37)"></path><path d="M435 115L475 155L495 155" stroke-width="1.67" stroke="rgba(89, 64, 0, 0.37)"></path><path d="M433.33 115 a1.67 1.67 0 1 0 3.34 0 a1.67 1.67 0 1 0 -3.34 0zM493.33 155 a1.67 1.67 0 1 0 3.34 0 a1.67 1.67 0 1 0 -3.34 0z" fill="rgba(89, 64, 0, 0.37)"></path><path d="M495 115L475 135L475 145" stroke-width="1.67" stroke="rgba(89, 64, 0, 0.37)"></path><path d="M493.33 115 a1.67 1.67 0 1 0 3.34 0 a1.67 1.67 0 1 0 -3.34 0zM473.33 145 a1.67 1.67 0 1 0 3.34 0 a1.67 1.67 0 1 0 -3.34 0z" fill="rgba(89, 64, 0, 0.37)"></path><path d="M465 235L495 235" stroke-width="1.67" stroke="rgba(89, 64, 0, 0.37)"></path><path d="M463.33 235 a1.67 1.67 0 1 0 3.34 0 a1.67 1.67 0 1 0 -3.34 0zM493.33 235 a1.67 1.67 0 1 0 3.34 0 a1.67 1.67 0 1 0 -3.34 0z" fill="rgba(89, 64, 0, 0.37)"></path><path d="M125 185L35 275L35 295" stroke-width="1.67" stroke="rgba(89, 64, 0, 0.37)"></path><path d="M123.33 185 a1.67 1.67 0 1 0 3.34 0 a1.67 1.67 0 1 0 -3.34 0zM33.33 295 a1.67 1.67 0 1 0 3.34 0 a1.67 1.67 0 1 0 -3.34 0z" fill="rgba(89, 64, 0, 0.37)"></path><path d="M385 35L415 5L495 5" stroke-width="1.67" stroke="rgba(89, 64, 0, 0.37)"></path><path d="M383.33 35 a1.67 1.67 0 1 0 3.34 0 a1.67 1.67 0 1 0 -3.34 0zM493.33 5 a1.67 1.67 0 1 0 3.34 0 a1.67 1.67 0 1 0 -3.34 0z" fill="rgba(89, 64, 0, 0.37)"></path><path d="M425 295L495 295" stroke-width="1.67" stroke="rgba(89, 64, 0, 0.37)"></path><path d="M423.33 295 a1.67 1.67 0 1 0 3.34 0 a1.67 1.67 0 1 0 -3.34 0zM493.33 295 a1.67 1.67 0 1 0 3.34 0 a1.67 1.67 0 1 0 -3.34 0z" fill="rgba(89, 64, 0, 0.37)"></path><path d="M405 215L405 295" stroke-width="1.67" stroke="rgba(89, 64, 0, 0.37)"></path><path d="M403.33 215 a1.67 1.67 0 1 0 3.34 0 a1.67 1.67 0 1 0 -3.34 0zM403.33 295 a1.67 1.67 0 1 0 3.34 0 a1.67 1.67 0 1 0 -3.34 0z" fill="rgba(89, 64, 0, 0.37)"></path><path d="M55 45L115 45L185 115L185 155L165 175" stroke-width="1.67" stroke="rgba(89, 64, 0, 0.37)"></path><path d="M53.33 45 a1.67 1.67 0 1 0 3.34 0 a1.67 1.67 0 1 0 -3.34 0zM163.33 175 a1.67 1.67 0 1 0 3.34 0 a1.67 1.67 0 1 0 -3.34 0z" fill="rgba(89, 64, 0, 0.37)"></path><path d="M105 265L95 275L95 295" stroke-width="1.67" stroke="rgba(89, 64, 0, 0.37)"></path><path d="M103.33 265 a1.67 1.67 0 1 0 3.34 0 a1.67 1.67 0 1 0 -3.34 0zM93.33 295 a1.67 1.67 0 1 0 3.34 0 a1.67 1.67 0 1 0 -3.34 0z" fill="rgba(89, 64, 0, 0.37)"></path><path d="M125 25L215 115L315 115" stroke-width="1.67" stroke="rgba(89, 64, 0, 0.37)"></path><path d="M123.33 25 a1.67 1.67 0 1 0 3.34 0 a1.67 1.67 0 1 0 -3.34 0zM313.33 115 a1.67 1.67 0 1 0 3.34 0 a1.67 1.67 0 1 0 -3.34 0z" fill="rgba(89, 64, 0, 0.37)"></path><path d="M385 5L365 25L335 25L315 5L295 5L235 65L195 65" stroke-width="1.67" stroke="rgba(89, 64, 0, 0.37)"></path><path d="M383.33 5 a1.67 1.67 0 1 0 3.34 0 a1.67 1.67 0 1 0 -3.34 0zM193.33 65 a1.67 1.67 0 1 0 3.34 0 a1.67 1.67 0 1 0 -3.34 0z" fill="rgba(89, 64, 0, 0.37)"></path><path d="M95 75L105 75L175 145L175 155L145 185" stroke-width="1.67" stroke="rgba(89, 64, 0, 0.37)"></path><path d="M93.33 75 a1.67 1.67 0 1 0 3.34 0 a1.67 1.67 0 1 0 -3.34 0zM143.33 185 a1.67 1.67 0 1 0 3.34 0 a1.67 1.67 0 1 0 -3.34 0z" fill="rgba(89, 64, 0, 0.37)"></path><path d="M335 135L395 195L395 295" stroke-width="1.67" stroke="rgba(89, 64, 0, 0.37)"></path><path d="M333.33 135 a1.67 1.67 0 1 0 3.34 0 a1.67 1.67 0 1 0 -3.34 0zM393.33 295 a1.67 1.67 0 1 0 3.34 0 a1.67 1.67 0 1 0 -3.34 0z" fill="rgba(89, 64, 0, 0.37)"></path><path d="M395 15L355 55L355 145L415 205" stroke-width="1.67" stroke="rgba(89, 64, 0, 0.37)"></path><path d="M393.33 15 a1.67 1.67 0 1 0 3.34 0 a1.67 1.67 0 1 0 -3.34 0zM413.33 205 a1.67 1.67 0 1 0 3.34 0 a1.67 1.67 0 1 0 -3.34 0z" fill="rgba(89, 64, 0, 0.37)"></path><path d="M325 245L305 225L305 155L275 125L205 125" stroke-width="1.67" stroke="rgba(89, 64, 0, 0.37)"></path><path d="M323.33 245 a1.67 1.67 0 1 0 3.34 0 a1.67 1.67 0 1 0 -3.34 0zM203.33 125 a1.67 1.67 0 1 0 3.34 0 a1.67 1.67 0 1 0 -3.34 0z" fill="rgba(89, 64, 0, 0.37)"></path><path d="M5 255L25 275L25 295" stroke-width="1.67" stroke="rgba(89, 64, 0, 0.37)"></path><path d="M3.33 255 a1.67 1.67 0 1 0 3.34 0 a1.67 1.67 0 1 0 -3.34 0zM23.33 295 a1.67 1.67 0 1 0 3.34 0 a1.67 1.67 0 1 0 -3.34 0z" fill="rgba(89, 64, 0, 0.37)"></path><path d="M85 5L95 15L125 15L135 5L275 5" stroke-width="1.67" stroke="rgba(89, 64, 0, 0.37)"></path><path d="M83.33 5 a1.67 1.67 0 1 0 3.34 0 a1.67 1.67 0 1 0 -3.34 0zM273.33 5 a1.67 1.67 0 1 0 3.34 0 a1.67 1.67 0 1 0 -3.34 0z" fill="rgba(89, 64, 0, 0.37)"></path><path d="M235 15L185 15L155 45" stroke-width="1.67" stroke="rgba(89, 64, 0, 0.37)"></path><path d="M233.33 15 a1.67 1.67 0 1 0 3.34 0 a1.67 1.67 0 1 0 -3.34 0zM153.33 45 a1.67 1.67 0 1 0 3.34 0 a1.67 1.67 0 1 0 -3.34 0z" fill="rgba(89, 64, 0, 0.37)"></path><path d="M65 145L75 155L125 155L145 175" stroke-width="1.67" stroke="rgba(89, 64, 0, 0.37)"></path><path d="M63.33 145 a1.67 1.67 0 1 0 3.34 0 a1.67 1.67 0 1 0 -3.34 0zM143.33 175 a1.67 1.67 0 1 0 3.34 0 a1.67 1.67 0 1 0 -3.34 0z" fill="rgba(89, 64, 0, 0.37)"></path><path d="M275 175L235 215L175 215L155 195L155 185" stroke-width="1.67" stroke="rgba(89, 64, 0, 0.37)"></path><path d="M273.33 175 a1.67 1.67 0 1 0 3.34 0 a1.67 1.67 0 1 0 -3.34 0zM153.33 185 a1.67 1.67 0 1 0 3.34 0 a1.67 1.67 0 1 0 -3.34 0z" fill="rgba(89, 64, 0, 0.37)"></path><path d="M225 185L235 195L235 205" stroke-width="1.67" stroke="rgba(89, 64, 0, 0.37)"></path><path d="M223.33 185 a1.67 1.67 0 1 0 3.34 0 a1.67 1.67 0 1 0 -3.34 0zM233.33 205 a1.67 1.67 0 1 0 3.34 0 a1.67 1.67 0 1 0 -3.34 0z" fill="rgba(89, 64, 0, 0.37)"></path><path d="M95 225L45 275L45 295" stroke-width="1.67" stroke="rgba(89, 64, 0, 0.37)"></path><path d="M93.33 225 a1.67 1.67 0 1 0 3.34 0 a1.67 1.67 0 1 0 -3.34 0zM43.33 295 a1.67 1.67 0 1 0 3.34 0 a1.67 1.67 0 1 0 -3.34 0z" fill="rgba(89, 64, 0, 0.37)"></path><path d="M455 215L465 205L465 185L445 165L445 135L405 95L365 95" stroke-width="1.67" stroke="rgba(89, 64, 0, 0.37)"></path><path d="M453.33 215 a1.67 1.67 0 1 0 3.34 0 a1.67 1.67 0 1 0 -3.34 0zM363.33 95 a1.67 1.67 0 1 0 3.34 0 a1.67 1.67 0 1 0 -3.34 0z" fill="rgba(89, 64, 0, 0.37)"></path><path d="M135 255L125 265L125 285L135 295L285 295" stroke-width="1.67" stroke="rgba(89, 64, 0, 0.37)"></path><path d="M133.33 255 a1.67 1.67 0 1 0 3.34 0 a1.67 1.67 0 1 0 -3.34 0zM283.33 295 a1.67 1.67 0 1 0 3.34 0 a1.67 1.67 0 1 0 -3.34 0z" fill="rgba(89, 64, 0, 0.37)"></path><path d="M35 65L55 85L105 85L165 145L165 155L155 165L145 165L115 135" stroke-width="1.67" stroke="rgba(89, 64, 0, 0.37)"></path><path d="M33.33 65 a1.67 1.67 0 1 0 3.34 0 a1.67 1.67 0 1 0 -3.34 0zM113.33 135 a1.67 1.67 0 1 0 3.34 0 a1.67 1.67 0 1 0 -3.34 0z" fill="rgba(89, 64, 0, 0.37)"></path><path d="M65 225L65 235L35 265L25 265L5 245L5 205L55 155L65 155" stroke-width="1.67" stroke="rgba(89, 64, 0, 0.37)"></path><path d="M63.33 225 a1.67 1.67 0 1 0 3.34 0 a1.67 1.67 0 1 0 -3.34 0zM63.33 155 a1.67 1.67 0 1 0 3.34 0 a1.67 1.67 0 1 0 -3.34 0z" fill="rgba(89, 64, 0, 0.37)"></path><path d="M415 135L435 155L435 285" stroke-width="1.67" stroke="rgba(89, 64, 0, 0.37)"></path><path d="M413.33 135 a1.67 1.67 0 1 0 3.34 0 a1.67 1.67 0 1 0 -3.34 0zM433.33 285 a1.67 1.67 0 1 0 3.34 0 a1.67 1.67 0 1 0 -3.34 0z" fill="rgba(89, 64, 0, 0.37)"></path><path d="M5 265L5 295" stroke-width="1.67" stroke="rgba(89, 64, 0, 0.37)"></path><path d="M3.33 265 a1.67 1.67 0 1 0 3.34 0 a1.67 1.67 0 1 0 -3.34 0zM3.33 295 a1.67 1.67 0 1 0 3.34 0 a1.67 1.67 0 1 0 -3.34 0z" fill="rgba(89, 64, 0, 0.37)"></path><path d="M275 225L295 225L325 255L325 295" stroke-width="1.67" stroke="rgba(89, 64, 0, 0.37)"></path><path d="M273.33 225 a1.67 1.67 0 1 0 3.34 0 a1.67 1.67 0 1 0 -3.34 0zM323.33 295 a1.67 1.67 0 1 0 3.34 0 a1.67 1.67 0 1 0 -3.34 0z" fill="rgba(89, 64, 0, 0.37)"></path><path d="M495 255L495 285" stroke-width="1.67" stroke="rgba(89, 64, 0, 0.37)"></path><path d="M493.33 255 a1.67 1.67 0 1 0 3.34 0 a1.67 1.67 0 1 0 -3.34 0zM493.33 285 a1.67 1.67 0 1 0 3.34 0 a1.67 1.67 0 1 0 -3.34 0z" fill="rgba(89, 64, 0, 0.37)"></path><path d="M285 105L285 25L295 15L315 15L345 45L345 95" stroke-width="1.67" stroke="rgba(89, 64, 0, 0.37)"></path><path d="M283.33 105 a1.67 1.67 0 1 0 3.34 0 a1.67 1.67 0 1 0 -3.34 0zM343.33 95 a1.67 1.67 0 1 0 3.34 0 a1.67 1.67 0 1 0 -3.34 0z" fill="rgba(89, 64, 0, 0.37)"></path><path d="M455 65L405 65L385 45L375 45L365 55L365 85" stroke-width="1.67" stroke="rgba(89, 64, 0, 0.37)"></path><path d="M453.33 65 a1.67 1.67 0 1 0 3.34 0 a1.67 1.67 0 1 0 -3.34 0zM363.33 85 a1.67 1.67 0 1 0 3.34 0 a1.67 1.67 0 1 0 -3.34 0z" fill="rgba(89, 64, 0, 0.37)"></path><path d="M55 35L55 15L45 5L5 5" stroke-width="1.67" stroke="rgba(89, 64, 0, 0.37)"></path><path d="M53.33 35 a1.67 1.67 0 1 0 3.34 0 a1.67 1.67 0 1 0 -3.34 0zM3.33 5 a1.67 1.67 0 1 0 3.34 0 a1.67 1.67 0 1 0 -3.34 0z" fill="rgba(89, 64, 0, 0.37)"></path><path d="M495 105L465 135" stroke-width="1.67" stroke="rgba(89, 64, 0, 0.37)"></path><path d="M493.33 105 a1.67 1.67 0 1 0 3.34 0 a1.67 1.67 0 1 0 -3.34 0zM463.33 135 a1.67 1.67 0 1 0 3.34 0 a1.67 1.67 0 1 0 -3.34 0z" fill="rgba(89, 64, 0, 0.37)"></path><path d="M415 185L415 195L425 205L425 285L415 295" stroke-width="1.67" stroke="rgba(89, 64, 0, 0.37)"></path><path d="M413.33 185 a1.67 1.67 0 1 0 3.34 0 a1.67 1.67 0 1 0 -3.34 0zM413.33 295 a1.67 1.67 0 1 0 3.34 0 a1.67 1.67 0 1 0 -3.34 0z" fill="rgba(89, 64, 0, 0.37)"></path><path d="M85 265L95 265L145 215L155 215L215 275L235 275L245 285L275 285" stroke-width="1.67" stroke="rgba(89, 64, 0, 0.37)"></path><path d="M83.33 265 a1.67 1.67 0 1 0 3.34 0 a1.67 1.67 0 1 0 -3.34 0zM273.33 285 a1.67 1.67 0 1 0 3.34 0 a1.67 1.67 0 1 0 -3.34 0z" fill="rgba(89, 64, 0, 0.37)"></path><path d="M465 285L445 265L445 175" stroke-width="1.67" stroke="rgba(89, 64, 0, 0.37)"></path><path d="M463.33 285 a1.67 1.67 0 1 0 3.34 0 a1.67 1.67 0 1 0 -3.34 0zM443.33 175 a1.67 1.67 0 1 0 3.34 0 a1.67 1.67 0 1 0 -3.34 0z" fill="rgba(89, 64, 0, 0.37)"></path><path d="M255 65L275 65" stroke-width="1.67" stroke="rgba(89, 64, 0, 0.37)"></path><path d="M253.33 65 a1.67 1.67 0 1 0 3.34 0 a1.67 1.67 0 1 0 -3.34 0zM273.33 65 a1.67 1.67 0 1 0 3.34 0 a1.67 1.67 0 1 0 -3.34 0z" fill="rgba(89, 64, 0, 0.37)"></path><path d="M335 275L335 295" stroke-width="1.67" stroke="rgba(89, 64, 0, 0.37)"></path><path d="M333.33 275 a1.67 1.67 0 1 0 3.34 0 a1.67 1.67 0 1 0 -3.34 0zM333.33 295 a1.67 1.67 0 1 0 3.34 0 a1.67 1.67 0 1 0 -3.34 0z" fill="rgba(89, 64, 0, 0.37)"></path><path d="M225 55L225 25" stroke-width="1.67" stroke="rgba(89, 64, 0, 0.37)"></path><path d="M223.33 55 a1.67 1.67 0 1 0 3.34 0 a1.67 1.67 0 1 0 -3.34 0zM223.33 25 a1.67 1.67 0 1 0 3.34 0 a1.67 1.67 0 1 0 -3.34 0z" fill="rgba(89, 64, 0, 0.37)"></path><path d="M35 95L5 125L5 195" stroke-width="1.67" stroke="rgba(89, 64, 0, 0.37)"></path><path d="M33.33 95 a1.67 1.67 0 1 0 3.34 0 a1.67 1.67 0 1 0 -3.34 0zM3.33 195 a1.67 1.67 0 1 0 3.34 0 a1.67 1.67 0 1 0 -3.34 0z" fill="rgba(89, 64, 0, 0.37)"></path><path d="M195 25L205 35L215 35" stroke-width="1.67" stroke="rgba(89, 64, 0, 0.37)"></path><path d="M193.33 25 a1.67 1.67 0 1 0 3.34 0 a1.67 1.67 0 1 0 -3.34 0zM213.33 35 a1.67 1.67 0 1 0 3.34 0 a1.67 1.67 0 1 0 -3.34 0z" fill="rgba(89, 64, 0, 0.37)"></path><path d="M375 275L345 275L335 265L335 245L315 225L315 125L325 115" stroke-width="1.67" stroke="rgba(89, 64, 0, 0.37)"></path><path d="M373.33 275 a1.67 1.67 0 1 0 3.34 0 a1.67 1.67 0 1 0 -3.34 0zM323.33 115 a1.67 1.67 0 1 0 3.34 0 a1.67 1.67 0 1 0 -3.34 0z" fill="rgba(89, 64, 0, 0.37)"></path><path d="M385 285L375 295L345 295" stroke-width="1.67" stroke="rgba(89, 64, 0, 0.37)"></path><path d="M383.33 285 a1.67 1.67 0 1 0 3.34 0 a1.67 1.67 0 1 0 -3.34 0zM343.33 295 a1.67 1.67 0 1 0 3.34 0 a1.67 1.67 0 1 0 -3.34 0z" fill="rgba(89, 64, 0, 0.37)"></path><path d="M65 35L125 35" stroke-width="1.67" stroke="rgba(89, 64, 0, 0.37)"></path><path d="M63.33 35 a1.67 1.67 0 1 0 3.34 0 a1.67 1.67 0 1 0 -3.34 0zM123.33 35 a1.67 1.67 0 1 0 3.34 0 a1.67 1.67 0 1 0 -3.34 0z" fill="rgba(89, 64, 0, 0.37)"></path><path d="M65 135L75 145L115 145" stroke-width="1.67" stroke="rgba(89, 64, 0, 0.37)"></path><path d="M63.33 135 a1.67 1.67 0 1 0 3.34 0 a1.67 1.67 0 1 0 -3.34 0zM113.33 145 a1.67 1.67 0 1 0 3.34 0 a1.67 1.67 0 1 0 -3.34 0z" fill="rgba(89, 64, 0, 0.37)"></path><path d="M105 115L85 135L75 135L65 125L65 95" stroke-width="1.67" stroke="rgba(89, 64, 0, 0.37)"></path><path d="M103.33 115 a1.67 1.67 0 1 0 3.34 0 a1.67 1.67 0 1 0 -3.34 0zM63.33 95 a1.67 1.67 0 1 0 3.34 0 a1.67 1.67 0 1 0 -3.34 0z" fill="rgba(89, 64, 0, 0.37)"></path><path d="M325 195L325 175L345 155" stroke-width="1.67" stroke="rgba(89, 64, 0, 0.37)"></path><path d="M323.33 195 a1.67 1.67 0 1 0 3.34 0 a1.67 1.67 0 1 0 -3.34 0zM343.33 155 a1.67 1.67 0 1 0 3.34 0 a1.67 1.67 0 1 0 -3.34 0z" fill="rgba(89, 64, 0, 0.37)"></path><path d="M495 15L455 15L415 55L405 55L395 45L395 35L415 15L445 15" stroke-width="1.67" stroke="rgba(89, 64, 0, 0.37)"></path><path d="M493.33 15 a1.67 1.67 0 1 0 3.34 0 a1.67 1.67 0 1 0 -3.34 0zM443.33 15 a1.67 1.67 0 1 0 3.34 0 a1.67 1.67 0 1 0 -3.34 0z" fill="rgba(89, 64, 0, 0.37)"></path><path d="M355 225L365 225L375 235L375 245L355 265L345 265" stroke-width="1.67" stroke="rgba(89, 64, 0, 0.37)"></path><path d="M353.33 225 a1.67 1.67 0 1 0 3.34 0 a1.67 1.67 0 1 0 -3.34 0zM343.33 265 a1.67 1.67 0 1 0 3.34 0 a1.67 1.67 0 1 0 -3.34 0z" fill="rgba(89, 64, 0, 0.37)"></path><path d="M495 175L475 195L475 225" stroke-width="1.67" stroke="rgba(89, 64, 0, 0.37)"></path><path d="M493.33 175 a1.67 1.67 0 1 0 3.34 0 a1.67 1.67 0 1 0 -3.34 0zM473.33 225 a1.67 1.67 0 1 0 3.34 0 a1.67 1.67 0 1 0 -3.34 0z" fill="rgba(89, 64, 0, 0.37)"></path><path d="M285 145L275 135L255 135L235 155L195 155L165 185L165 195L175 205L225 205" stroke-width="1.67" stroke="rgba(89, 64, 0, 0.37)"></path><path d="M283.33 145 a1.67 1.67 0 1 0 3.34 0 a1.67 1.67 0 1 0 -3.34 0zM223.33 205 a1.67 1.67 0 1 0 3.34 0 a1.67 1.67 0 1 0 -3.34 0z" fill="rgba(89, 64, 0, 0.37)"></path><path d="M105 175L105 195L75 225" stroke-width="1.67" stroke="rgba(89, 64, 0, 0.37)"></path><path d="M103.33 175 a1.67 1.67 0 1 0 3.34 0 a1.67 1.67 0 1 0 -3.34 0zM73.33 225 a1.67 1.67 0 1 0 3.34 0 a1.67 1.67 0 1 0 -3.34 0z" fill="rgba(89, 64, 0, 0.37)"></path><path d="M345 205L355 215L365 215L385 195" stroke-width="1.67" stroke="rgba(89, 64, 0, 0.37)"></path><path d="M343.33 205 a1.67 1.67 0 1 0 3.34 0 a1.67 1.67 0 1 0 -3.34 0zM383.33 195 a1.67 1.67 0 1 0 3.34 0 a1.67 1.67 0 1 0 -3.34 0z" fill="rgba(89, 64, 0, 0.37)"></path><path d="M235 55L235 25L245 15L275 15" stroke-width="1.67" stroke="rgba(89, 64, 0, 0.37)"></path><path d="M233.33 55 a1.67 1.67 0 1 0 3.34 0 a1.67 1.67 0 1 0 -3.34 0zM273.33 15 a1.67 1.67 0 1 0 3.34 0 a1.67 1.67 0 1 0 -3.34 0z" fill="rgba(89, 64, 0, 0.37)"></path><path d="M175 55L195 75L275 75" stroke-width="1.67" stroke="rgba(89, 64, 0, 0.37)"></path><path d="M173.33 55 a1.67 1.67 0 1 0 3.34 0 a1.67 1.67 0 1 0 -3.34 0zM273.33 75 a1.67 1.67 0 1 0 3.34 0 a1.67 1.67 0 1 0 -3.34 0z" fill="rgba(89, 64, 0, 0.37)"></path><path d="M75 205L45 235L45 245L35 255L25 255L15 245L15 205L55 165" stroke-width="1.67" stroke="rgba(89, 64, 0, 0.37)"></path><path d="M73.33 205 a1.67 1.67 0 1 0 3.34 0 a1.67 1.67 0 1 0 -3.34 0zM53.33 165 a1.67 1.67 0 1 0 3.34 0 a1.67 1.67 0 1 0 -3.34 0z" fill="rgba(89, 64, 0, 0.37)"></path><path d="M135 75L115 55L45 55L5 15" stroke-width="1.67" stroke="rgba(89, 64, 0, 0.37)"></path><path d="M133.33 75 a1.67 1.67 0 1 0 3.34 0 a1.67 1.67 0 1 0 -3.34 0zM3.33 15 a1.67 1.67 0 1 0 3.34 0 a1.67 1.67 0 1 0 -3.34 0z" fill="rgba(89, 64, 0, 0.37)"></path><path d="M305 105L325 105L335 95L335 75L295 35L295 25" stroke-width="1.67" stroke="rgba(89, 64, 0, 0.37)"></path><path d="M303.33 105 a1.67 1.67 0 1 0 3.34 0 a1.67 1.67 0 1 0 -3.34 0zM293.33 25 a1.67 1.67 0 1 0 3.34 0 a1.67 1.67 0 1 0 -3.34 0z" fill="rgba(89, 64, 0, 0.37)"></path><path d="M325 95L325 75L295 45" stroke-width="1.67" stroke="rgba(89, 64, 0, 0.37)"></path><path d="M323.33 95 a1.67 1.67 0 1 0 3.34 0 a1.67 1.67 0 1 0 -3.34 0zM293.33 45 a1.67 1.67 0 1 0 3.34 0 a1.67 1.67 0 1 0 -3.34 0z" fill="rgba(89, 64, 0, 0.37)"></path><path d="M165 245L175 245L215 285L235 285" stroke-width="1.67" stroke="rgba(89, 64, 0, 0.37)"></path><path d="M163.33 245 a1.67 1.67 0 1 0 3.34 0 a1.67 1.67 0 1 0 -3.34 0zM233.33 285 a1.67 1.67 0 1 0 3.34 0 a1.67 1.67 0 1 0 -3.34 0z" fill="rgba(89, 64, 0, 0.37)"></path><path d="M295 285L285 285L235 235L185 235" stroke-width="1.67" stroke="rgba(89, 64, 0, 0.37)"></path><path d="M293.33 285 a1.67 1.67 0 1 0 3.34 0 a1.67 1.67 0 1 0 -3.34 0zM183.33 235 a1.67 1.67 0 1 0 3.34 0 a1.67 1.67 0 1 0 -3.34 0z" fill="rgba(89, 64, 0, 0.37)"></path><path d="M485 65L495 75L495 95L465 125L455 125L385 55L375 55" stroke-width="1.67" stroke="rgba(89, 64, 0, 0.37)"></path><path d="M483.33 65 a1.67 1.67 0 1 0 3.34 0 a1.67 1.67 0 1 0 -3.34 0zM373.33 55 a1.67 1.67 0 1 0 3.34 0 a1.67 1.67 0 1 0 -3.34 0z" fill="rgba(89, 64, 0, 0.37)"></path><path d="M25 55L25 45L5 25" stroke-width="1.67" stroke="rgba(89, 64, 0, 0.37)"></path><path d="M23.33 55 a1.67 1.67 0 1 0 3.34 0 a1.67 1.67 0 1 0 -3.34 0zM3.33 25 a1.67 1.67 0 1 0 3.34 0 a1.67 1.67 0 1 0 -3.34 0z" fill="rgba(89, 64, 0, 0.37)"></path><path d="M465 175L455 165L455 145" stroke-width="1.67" stroke="rgba(89, 64, 0, 0.37)"></path><path d="M463.33 175 a1.67 1.67 0 1 0 3.34 0 a1.67 1.67 0 1 0 -3.34 0zM453.33 145 a1.67 1.67 0 1 0 3.34 0 a1.67 1.67 0 1 0 -3.34 0z" fill="rgba(89, 64, 0, 0.37)"></path><path d="M85 15L95 25L115 25" stroke-width="1.67" stroke="rgba(89, 64, 0, 0.37)"></path><path d="M83.33 15 a1.67 1.67 0 1 0 3.34 0 a1.67 1.67 0 1 0 -3.34 0zM113.33 25 a1.67 1.67 0 1 0 3.34 0 a1.67 1.67 0 1 0 -3.34 0z" fill="rgba(89, 64, 0, 0.37)"></path><path d="M245 275L245 255L235 245L195 245" stroke-width="1.67" stroke="rgba(89, 64, 0, 0.37)"></path><path d="M243.33 275 a1.67 1.67 0 1 0 3.34 0 a1.67 1.67 0 1 0 -3.34 0zM193.33 245 a1.67 1.67 0 1 0 3.34 0 a1.67 1.67 0 1 0 -3.34 0z" fill="rgba(89, 64, 0, 0.37)"></path><path d="M415 75L425 75L445 95L465 95L475 105" stroke-width="1.67" stroke="rgba(89, 64, 0, 0.37)"></path><path d="M413.33 75 a1.67 1.67 0 1 0 3.34 0 a1.67 1.67 0 1 0 -3.34 0zM473.33 105 a1.67 1.67 0 1 0 3.34 0 a1.67 1.67 0 1 0 -3.34 0z" fill="rgba(89, 64, 0, 0.37)"></path><path d="M225 265L215 265L205 255" stroke-width="1.67" stroke="rgba(89, 64, 0, 0.37)"></path><path d="M223.33 265 a1.67 1.67 0 1 0 3.34 0 a1.67 1.67 0 1 0 -3.34 0zM203.33 255 a1.67 1.67 0 1 0 3.34 0 a1.67 1.67 0 1 0 -3.34 0z" fill="rgba(89, 64, 0, 0.37)"></path><path d="M245 165L205 165L175 195" stroke-width="1.67" stroke="rgba(89, 64, 0, 0.37)"></path><path d="M243.33 165 a1.67 1.67 0 1 0 3.34 0 a1.67 1.67 0 1 0 -3.34 0zM173.33 195 a1.67 1.67 0 1 0 3.34 0 a1.67 1.67 0 1 0 -3.34 0z" fill="rgba(89, 64, 0, 0.37)"></path><path d="M475 75L455 55L425 55" stroke-width="1.67" stroke="rgba(89, 64, 0, 0.37)"></path><path d="M473.33 75 a1.67 1.67 0 1 0 3.34 0 a1.67 1.67 0 1 0 -3.34 0zM423.33 55 a1.67 1.67 0 1 0 3.34 0 a1.67 1.67 0 1 0 -3.34 0z" fill="rgba(89, 64, 0, 0.37)"></path><path d="M395 135L415 115" stroke-width="1.67" stroke="rgba(89, 64, 0, 0.37)"></path><path d="M393.33 135 a1.67 1.67 0 1 0 3.34 0 a1.67 1.67 0 1 0 -3.34 0zM413.33 115 a1.67 1.67 0 1 0 3.34 0 a1.67 1.67 0 1 0 -3.34 0z" fill="rgba(89, 64, 0, 0.37)"></path><path d="M365 145L415 145L425 155L425 165L405 185" stroke-width="1.67" stroke="rgba(89, 64, 0, 0.37)"></path><path d="M363.33 145 a1.67 1.67 0 1 0 3.34 0 a1.67 1.67 0 1 0 -3.34 0zM403.33 185 a1.67 1.67 0 1 0 3.34 0 a1.67 1.67 0 1 0 -3.34 0z" fill="rgba(89, 64, 0, 0.37)"></path><path d="M145 225L155 235L165 235" stroke-width="1.67" stroke="rgba(89, 64, 0, 0.37)"></path><path d="M143.33 225 a1.67 1.67 0 1 0 3.34 0 a1.67 1.67 0 1 0 -3.34 0zM163.33 235 a1.67 1.67 0 1 0 3.34 0 a1.67 1.67 0 1 0 -3.34 0z" fill="rgba(89, 64, 0, 0.37)"></path><path d="M435 135L425 135L415 125" stroke-width="1.67" stroke="rgba(89, 64, 0, 0.37)"></path><path d="M433.33 135 a1.67 1.67 0 1 0 3.34 0 a1.67 1.67 0 1 0 -3.34 0zM413.33 125 a1.67 1.67 0 1 0 3.34 0 a1.67 1.67 0 1 0 -3.34 0z" fill="rgba(89, 64, 0, 0.37)"></path><path d="M155 75L135 55" stroke-width="1.67" stroke="rgba(89, 64, 0, 0.37)"></path><path d="M153.33 75 a1.67 1.67 0 1 0 3.34 0 a1.67 1.67 0 1 0 -3.34 0zM133.33 55 a1.67 1.67 0 1 0 3.34 0 a1.67 1.67 0 1 0 -3.34 0z" fill="rgba(89, 64, 0, 0.37)"></path><path d="M465 85L445 85L435 75" stroke-width="1.67" stroke="rgba(89, 64, 0, 0.37)"></path><path d="M463.33 85 a1.67 1.67 0 1 0 3.34 0 a1.67 1.67 0 1 0 -3.34 0zM433.33 75 a1.67 1.67 0 1 0 3.34 0 a1.67 1.67 0 1 0 -3.34 0z" fill="rgba(89, 64, 0, 0.37)"></path><path d="M335 175L335 235L345 245L365 245" stroke-width="1.67" stroke="rgba(89, 64, 0, 0.37)"></path><path d="M333.33 175 a1.67 1.67 0 1 0 3.34 0 a1.67 1.67 0 1 0 -3.34 0zM363.33 245 a1.67 1.67 0 1 0 3.34 0 a1.67 1.67 0 1 0 -3.34 0z" fill="rgba(89, 64, 0, 0.37)"></path><path d="M95 95L105 95L155 145L155 155" stroke-width="1.67" stroke="rgba(89, 64, 0, 0.37)"></path><path d="M93.33 95 a1.67 1.67 0 1 0 3.34 0 a1.67 1.67 0 1 0 -3.34 0zM153.33 155 a1.67 1.67 0 1 0 3.34 0 a1.67 1.67 0 1 0 -3.34 0z" fill="rgba(89, 64, 0, 0.37)"></path><path d="M265 215L265 255L285 275L315 275" stroke-width="1.67" stroke="rgba(89, 64, 0, 0.37)"></path><path d="M263.33 215 a1.67 1.67 0 1 0 3.34 0 a1.67 1.67 0 1 0 -3.34 0zM313.33 275 a1.67 1.67 0 1 0 3.34 0 a1.67 1.67 0 1 0 -3.34 0z" fill="rgba(89, 64, 0, 0.37)"></path><path d="M175 115L155 115L105 65L45 65" stroke-width="1.67" stroke="rgba(89, 64, 0, 0.37)"></path><path d="M173.33 115 a1.67 1.67 0 1 0 3.34 0 a1.67 1.67 0 1 0 -3.34 0zM43.33 65 a1.67 1.67 0 1 0 3.34 0 a1.67 1.67 0 1 0 -3.34 0z" fill="rgba(89, 64, 0, 0.37)"></path><path d="M145 205L135 195L125 195L105 215L105 245L95 255L75 255L55 275L55 295" stroke-width="1.67" stroke="rgba(89, 64, 0, 0.37)"></path><path d="M143.33 205 a1.67 1.67 0 1 0 3.34 0 a1.67 1.67 0 1 0 -3.34 0zM53.33 295 a1.67 1.67 0 1 0 3.34 0 a1.67 1.67 0 1 0 -3.34 0z" fill="rgba(89, 64, 0, 0.37)"></path><path d="M135 15L175 15" stroke-width="1.67" stroke="rgba(89, 64, 0, 0.37)"></path><path d="M133.33 15 a1.67 1.67 0 1 0 3.34 0 a1.67 1.67 0 1 0 -3.34 0zM173.33 15 a1.67 1.67 0 1 0 3.34 0 a1.67 1.67 0 1 0 -3.34 0z" fill="rgba(89, 64, 0, 0.37)"></path><path d="M15 155L25 165L35 165L45 155" stroke-width="1.67" stroke="rgba(89, 64, 0, 0.37)"></path><path d="M13.33 155 a1.67 1.67 0 1 0 3.34 0 a1.67 1.67 0 1 0 -3.34 0zM43.33 155 a1.67 1.67 0 1 0 3.34 0 a1.67 1.67 0 1 0 -3.34 0z" fill="rgba(89, 64, 0, 0.37)"></path><path d="M295 185L275 185L245 215" stroke-width="1.67" stroke="rgba(89, 64, 0, 0.37)"></path><path d="M293.33 185 a1.67 1.67 0 1 0 3.34 0 a1.67 1.67 0 1 0 -3.34 0zM243.33 215 a1.67 1.67 0 1 0 3.34 0 a1.67 1.67 0 1 0 -3.34 0z" fill="rgba(89, 64, 0, 0.37)"></path><path d="M405 105L405 115L385 135L365 135" stroke-width="1.67" stroke="rgba(89, 64, 0, 0.37)"></path><path d="M403.33 105 a1.67 1.67 0 1 0 3.34 0 a1.67 1.67 0 1 0 -3.34 0zM363.33 135 a1.67 1.67 0 1 0 3.34 0 a1.67 1.67 0 1 0 -3.34 0z" fill="rgba(89, 64, 0, 0.37)"></path><path d="M265 155L245 155" stroke-width="1.67" stroke="rgba(89, 64, 0, 0.37)"></path><path d="M263.33 155 a1.67 1.67 0 1 0 3.34 0 a1.67 1.67 0 1 0 -3.34 0zM243.33 155 a1.67 1.67 0 1 0 3.34 0 a1.67 1.67 0 1 0 -3.34 0z" fill="rgba(89, 64, 0, 0.37)"></path><path d="M185 285L205 285" stroke-width="1.67" stroke="rgba(89, 64, 0, 0.37)"></path><path d="M183.33 285 a1.67 1.67 0 1 0 3.34 0 a1.67 1.67 0 1 0 -3.34 0zM203.33 285 a1.67 1.67 0 1 0 3.34 0 a1.67 1.67 0 1 0 -3.34 0z" fill="rgba(89, 64, 0, 0.37)"></path><path d="M105 295L105 275L145 235" stroke-width="1.67" stroke="rgba(89, 64, 0, 0.37)"></path><path d="M103.33 295 a1.67 1.67 0 1 0 3.34 0 a1.67 1.67 0 1 0 -3.34 0zM143.33 235 a1.67 1.67 0 1 0 3.34 0 a1.67 1.67 0 1 0 -3.34 0z" fill="rgba(89, 64, 0, 0.37)"></path><path d="M45 195L65 175L95 175" stroke-width="1.67" stroke="rgba(89, 64, 0, 0.37)"></path><path d="M43.33 195 a1.67 1.67 0 1 0 3.34 0 a1.67 1.67 0 1 0 -3.34 0zM93.33 175 a1.67 1.67 0 1 0 3.34 0 a1.67 1.67 0 1 0 -3.34 0z" fill="rgba(89, 64, 0, 0.37)"></path><path d="M385 125L365 125" stroke-width="1.67" stroke="rgba(89, 64, 0, 0.37)"></path><path d="M383.33 125 a1.67 1.67 0 1 0 3.34 0 a1.67 1.67 0 1 0 -3.34 0zM363.33 125 a1.67 1.67 0 1 0 3.34 0 a1.67 1.67 0 1 0 -3.34 0z" fill="rgba(89, 64, 0, 0.37)"></path><path d="M65 75L85 75" stroke-width="1.67" stroke="rgba(89, 64, 0, 0.37)"></path><path d="M63.33 75 a1.67 1.67 0 1 0 3.34 0 a1.67 1.67 0 1 0 -3.34 0zM83.33 75 a1.67 1.67 0 1 0 3.34 0 a1.67 1.67 0 1 0 -3.34 0z" fill="rgba(89, 64, 0, 0.37)"></path><path d="M115 125L105 125L95 135" stroke-width="1.67" stroke="rgba(89, 64, 0, 0.37)"></path><path d="M113.33 125 a1.67 1.67 0 1 0 3.34 0 a1.67 1.67 0 1 0 -3.34 0zM93.33 135 a1.67 1.67 0 1 0 3.34 0 a1.67 1.67 0 1 0 -3.34 0z" fill="rgba(89, 64, 0, 0.37)"></path><path d="M265 95L205 95L195 85" stroke-width="1.67" stroke="rgba(89, 64, 0, 0.37)"></path><path d="M263.33 95 a1.67 1.67 0 1 0 3.34 0 a1.67 1.67 0 1 0 -3.34 0zM193.33 85 a1.67 1.67 0 1 0 3.34 0 a1.67 1.67 0 1 0 -3.34 0z" fill="rgba(89, 64, 0, 0.37)"></path><path d="M455 235L455 245L485 275L485 285" stroke-width="1.67" stroke="rgba(89, 64, 0, 0.37)"></path><path d="M453.33 235 a1.67 1.67 0 1 0 3.34 0 a1.67 1.67 0 1 0 -3.34 0zM483.33 285 a1.67 1.67 0 1 0 3.34 0 a1.67 1.67 0 1 0 -3.34 0z" fill="rgba(89, 64, 0, 0.37)"></path><path d="M215 255L225 255L235 265" stroke-width="1.67" stroke="rgba(89, 64, 0, 0.37)"></path><path d="M213.33 255 a1.67 1.67 0 1 0 3.34 0 a1.67 1.67 0 1 0 -3.34 0zM233.33 265 a1.67 1.67 0 1 0 3.34 0 a1.67 1.67 0 1 0 -3.34 0z" fill="rgba(89, 64, 0, 0.37)"></path><path d="M65 205L85 185L95 185" stroke-width="1.67" stroke="rgba(89, 64, 0, 0.37)"></path><path d="M63.33 205 a1.67 1.67 0 1 0 3.34 0 a1.67 1.67 0 1 0 -3.34 0zM93.33 185 a1.67 1.67 0 1 0 3.34 0 a1.67 1.67 0 1 0 -3.34 0z" fill="rgba(89, 64, 0, 0.37)"></path><path d="M15 85L25 75L35 75L55 95L55 135" stroke-width="1.67" stroke="rgba(89, 64, 0, 0.37)"></path><path d="M13.33 85 a1.67 1.67 0 1 0 3.34 0 a1.67 1.67 0 1 0 -3.34 0zM53.33 135 a1.67 1.67 0 1 0 3.34 0 a1.67 1.67 0 1 0 -3.34 0z" fill="rgba(89, 64, 0, 0.37)"></path><path d="M345 285L375 285" stroke-width="1.67" stroke="rgba(89, 64, 0, 0.37)"></path><path d="M343.33 285 a1.67 1.67 0 1 0 3.34 0 a1.67 1.67 0 1 0 -3.34 0zM373.33 285 a1.67 1.67 0 1 0 3.34 0 a1.67 1.67 0 1 0 -3.34 0z" fill="rgba(89, 64, 0, 0.37)"></path><path d="M395 75L375 75" stroke-width="1.67" stroke="rgba(89, 64, 0, 0.37)"></path><path d="M393.33 75 a1.67 1.67 0 1 0 3.34 0 a1.67 1.67 0 1 0 -3.34 0zM373.33 75 a1.67 1.67 0 1 0 3.34 0 a1.67 1.67 0 1 0 -3.34 0z" fill="rgba(89, 64, 0, 0.37)"></path><path d="M55 5L75 25L85 25" stroke-width="1.67" stroke="rgba(89, 64, 0, 0.37)"></path><path d="M53.33 5 a1.67 1.67 0 1 0 3.34 0 a1.67 1.67 0 1 0 -3.34 0zM83.33 25 a1.67 1.67 0 1 0 3.34 0 a1.67 1.67 0 1 0 -3.34 0z" fill="rgba(89, 64, 0, 0.37)"></path><path d="M45 125L35 115L25 115L15 125" stroke-width="1.67" stroke="rgba(89, 64, 0, 0.37)"></path><path d="M43.33 125 a1.67 1.67 0 1 0 3.34 0 a1.67 1.67 0 1 0 -3.34 0zM13.33 125 a1.67 1.67 0 1 0 3.34 0 a1.67 1.67 0 1 0 -3.34 0z" fill="rgba(89, 64, 0, 0.37)"></path><path d="M15 65L5 55L5 35" stroke-width="1.67" stroke="rgba(89, 64, 0, 0.37)"></path><path d="M13.33 65 a1.67 1.67 0 1 0 3.34 0 a1.67 1.67 0 1 0 -3.34 0zM3.33 35 a1.67 1.67 0 1 0 3.34 0 a1.67 1.67 0 1 0 -3.34 0z" fill="rgba(89, 64, 0, 0.37)"></path><path d="M305 135L295 135L285 125" stroke-width="1.67" stroke="rgba(89, 64, 0, 0.37)"></path><path d="M303.33 135 a1.67 1.67 0 1 0 3.34 0 a1.67 1.67 0 1 0 -3.34 0zM283.33 125 a1.67 1.67 0 1 0 3.34 0 a1.67 1.67 0 1 0 -3.34 0z" fill="rgba(89, 64, 0, 0.37)"></path><path d="M135 85L145 85L165 105" stroke-width="1.67" stroke="rgba(89, 64, 0, 0.37)"></path><path d="M133.33 85 a1.67 1.67 0 1 0 3.34 0 a1.67 1.67 0 1 0 -3.34 0zM163.33 105 a1.67 1.67 0 1 0 3.34 0 a1.67 1.67 0 1 0 -3.34 0z" fill="rgba(89, 64, 0, 0.37)"></path><path d="M295 255L315 255" stroke-width="1.67" stroke="rgba(89, 64, 0, 0.37)"></path><path d="M293.33 255 a1.67 1.67 0 1 0 3.34 0 a1.67 1.67 0 1 0 -3.34 0zM313.33 255 a1.67 1.67 0 1 0 3.34 0 a1.67 1.67 0 1 0 -3.34 0z" fill="rgba(89, 64, 0, 0.37)"></path><path d="M475 55L475 25" stroke-width="1.67" stroke="rgba(89, 64, 0, 0.37)"></path><path d="M473.33 55 a1.67 1.67 0 1 0 3.34 0 a1.67 1.67 0 1 0 -3.34 0zM473.33 25 a1.67 1.67 0 1 0 3.34 0 a1.67 1.67 0 1 0 -3.34 0z" fill="rgba(89, 64, 0, 0.37)"></path><path d="M35 205L35 235L25 245" stroke-width="1.67" stroke="rgba(89, 64, 0, 0.37)"></path><path d="M33.33 205 a1.67 1.67 0 1 0 3.34 0 a1.67 1.67 0 1 0 -3.34 0zM23.33 245 a1.67 1.67 0 1 0 3.34 0 a1.67 1.67 0 1 0 -3.34 0z" fill="rgba(89, 64, 0, 0.37)"></path><path d="M375 195L365 205L355 205L345 195L345 165" stroke-width="1.67" stroke="rgba(89, 64, 0, 0.37)"></path><path d="M373.33 195 a1.67 1.67 0 1 0 3.34 0 a1.67 1.67 0 1 0 -3.34 0zM343.33 165 a1.67 1.67 0 1 0 3.34 0 a1.67 1.67 0 1 0 -3.34 0z" fill="rgba(89, 64, 0, 0.37)"></path><path d="M55 205L75 185" stroke-width="1.67" stroke="rgba(89, 64, 0, 0.37)"></path><path d="M53.33 205 a1.67 1.67 0 1 0 3.34 0 a1.67 1.67 0 1 0 -3.34 0zM73.33 185 a1.67 1.67 0 1 0 3.34 0 a1.67 1.67 0 1 0 -3.34 0z" fill="rgba(89, 64, 0, 0.37)"></path><path d="M495 205L485 215L485 225" stroke-width="1.67" stroke="rgba(89, 64, 0, 0.37)"></path><path d="M493.33 205 a1.67 1.67 0 1 0 3.34 0 a1.67 1.67 0 1 0 -3.34 0zM483.33 225 a1.67 1.67 0 1 0 3.34 0 a1.67 1.67 0 1 0 -3.34 0z" fill="rgba(89, 64, 0, 0.37)"></path><path d="M385 245L385 275" stroke-width="1.67" stroke="rgba(89, 64, 0, 0.37)"></path><path d="M383.33 245 a1.67 1.67 0 1 0 3.34 0 a1.67 1.67 0 1 0 -3.34 0zM383.33 275 a1.67 1.67 0 1 0 3.34 0 a1.67 1.67 0 1 0 -3.34 0z" fill="rgba(89, 64, 0, 0.37)"></path><path d="M465 105L445 105" stroke-width="1.67" stroke="rgba(89, 64, 0, 0.37)"></path><path d="M463.33 105 a1.67 1.67 0 1 0 3.34 0 a1.67 1.67 0 1 0 -3.34 0zM443.33 105 a1.67 1.67 0 1 0 3.34 0 a1.67 1.67 0 1 0 -3.34 0z" fill="rgba(89, 64, 0, 0.37)"></path><path d="M275 155L275 165L265 175L245 175L235 185" stroke-width="1.67" stroke="rgba(89, 64, 0, 0.37)"></path><path d="M273.33 155 a1.67 1.67 0 1 0 3.34 0 a1.67 1.67 0 1 0 -3.34 0zM233.33 185 a1.67 1.67 0 1 0 3.34 0 a1.67 1.67 0 1 0 -3.34 0z" fill="rgba(89, 64, 0, 0.37)"></path><path d="M175 285L135 285" stroke-width="1.67" stroke="rgba(89, 64, 0, 0.37)"></path><path d="M173.33 285 a1.67 1.67 0 1 0 3.34 0 a1.67 1.67 0 1 0 -3.34 0zM133.33 285 a1.67 1.67 0 1 0 3.34 0 a1.67 1.67 0 1 0 -3.34 0z" fill="rgba(89, 64, 0, 0.37)"></path><path d="M145 245L145 275" stroke-width="1.67" stroke="rgba(89, 64, 0, 0.37)"></path><path d="M143.33 245 a1.67 1.67 0 1 0 3.34 0 a1.67 1.67 0 1 0 -3.34 0zM143.33 275 a1.67 1.67 0 1 0 3.34 0 a1.67 1.67 0 1 0 -3.34 0z" fill="rgba(89, 64, 0, 0.37)"></path><path d="M175 95L185 105L195 105" stroke-width="1.67" stroke="rgba(89, 64, 0, 0.37)"></path><path d="M173.33 95 a1.67 1.67 0 1 0 3.34 0 a1.67 1.67 0 1 0 -3.34 0zM193.33 105 a1.67 1.67 0 1 0 3.34 0 a1.67 1.67 0 1 0 -3.34 0z" fill="rgba(89, 64, 0, 0.37)"></path><path d="M205 145L215 135L245 135" stroke-width="1.67" stroke="rgba(89, 64, 0, 0.37)"></path><path d="M203.33 145 a1.67 1.67 0 1 0 3.34 0 a1.67 1.67 0 1 0 -3.34 0zM243.33 135 a1.67 1.67 0 1 0 3.34 0 a1.67 1.67 0 1 0 -3.34 0z" fill="rgba(89, 64, 0, 0.37)"></path><path d="M465 25L455 25L435 45" stroke-width="1.67" stroke="rgba(89, 64, 0, 0.37)"></path><path d="M463.33 25 a1.67 1.67 0 1 0 3.34 0 a1.67 1.67 0 1 0 -3.34 0zM433.33 45 a1.67 1.67 0 1 0 3.34 0 a1.67 1.67 0 1 0 -3.34 0z" fill="rgba(89, 64, 0, 0.37)"></path><path d="M215 175L205 175L185 195" stroke-width="1.67" stroke="rgba(89, 64, 0, 0.37)"></path><path d="M213.33 175 a1.67 1.67 0 1 0 3.34 0 a1.67 1.67 0 1 0 -3.34 0zM183.33 195 a1.67 1.67 0 1 0 3.34 0 a1.67 1.67 0 1 0 -3.34 0z" fill="rgba(89, 64, 0, 0.37)"></path><path d="M65 275L85 275" stroke-width="1.67" stroke="rgba(89, 64, 0, 0.37)"></path><path d="M63.33 275 a1.67 1.67 0 1 0 3.34 0 a1.67 1.67 0 1 0 -3.34 0zM83.33 275 a1.67 1.67 0 1 0 3.34 0 a1.67 1.67 0 1 0 -3.34 0z" fill="rgba(89, 64, 0, 0.37)"></path><path d="M275 145L255 145" stroke-width="1.67" stroke="rgba(89, 64, 0, 0.37)"></path><path d="M273.33 145 a1.67 1.67 0 1 0 3.34 0 a1.67 1.67 0 1 0 -3.34 0zM253.33 145 a1.67 1.67 0 1 0 3.34 0 a1.67 1.67 0 1 0 -3.34 0z" fill="rgba(89, 64, 0, 0.37)"></path><path d="M335 125L325 135L325 155" stroke-width="1.67" stroke="rgba(89, 64, 0, 0.37)"></path><path d="M333.33 125 a1.67 1.67 0 1 0 3.34 0 a1.67 1.67 0 1 0 -3.34 0zM323.33 155 a1.67 1.67 0 1 0 3.34 0 a1.67 1.67 0 1 0 -3.34 0z" fill="rgba(89, 64, 0, 0.37)"></path><path d="M225 85L265 85" stroke-width="1.67" stroke="rgba(89, 64, 0, 0.37)"></path><path d="M223.33 85 a1.67 1.67 0 1 0 3.34 0 a1.67 1.67 0 1 0 -3.34 0zM263.33 85 a1.67 1.67 0 1 0 3.34 0 a1.67 1.67 0 1 0 -3.34 0z" fill="rgba(89, 64, 0, 0.37)"></path><path d="M485 95L485 75" stroke-width="1.67" stroke="rgba(89, 64, 0, 0.37)"></path><path d="M483.33 95 a1.67 1.67 0 1 0 3.34 0 a1.67 1.67 0 1 0 -3.34 0zM483.33 75 a1.67 1.67 0 1 0 3.34 0 a1.67 1.67 0 1 0 -3.34 0z" fill="rgba(89, 64, 0, 0.37)"></path><path d="M155 245L185 275" stroke-width="1.67" stroke="rgba(89, 64, 0, 0.37)"></path><path d="M153.33 245 a1.67 1.67 0 1 0 3.34 0 a1.67 1.67 0 1 0 -3.34 0zM183.33 275 a1.67 1.67 0 1 0 3.34 0 a1.67 1.67 0 1 0 -3.34 0z" fill="rgba(89, 64, 0, 0.37)"></path><path d="M305 85L305 95L295 105" stroke-width="1.67" stroke="rgba(89, 64, 0, 0.37)"></path><path d="M303.33 85 a1.67 1.67 0 1 0 3.34 0 a1.67 1.67 0 1 0 -3.34 0zM293.33 105 a1.67 1.67 0 1 0 3.34 0 a1.67 1.67 0 1 0 -3.34 0z" fill="rgba(89, 64, 0, 0.37)"></path><path d="M465 35L455 35L445 45" stroke-width="1.67" stroke="rgba(89, 64, 0, 0.37)"></path><path d="M463.33 35 a1.67 1.67 0 1 0 3.34 0 a1.67 1.67 0 1 0 -3.34 0zM443.33 45 a1.67 1.67 0 1 0 3.34 0 a1.67 1.67 0 1 0 -3.34 0z" fill="rgba(89, 64, 0, 0.37)"></path><path d="M355 235L345 225L345 215" stroke-width="1.67" stroke="rgba(89, 64, 0, 0.37)"></path><path d="M353.33 235 a1.67 1.67 0 1 0 3.34 0 a1.67 1.67 0 1 0 -3.34 0zM343.33 215 a1.67 1.67 0 1 0 3.34 0 a1.67 1.67 0 1 0 -3.34 0z" fill="rgba(89, 64, 0, 0.37)"></path><path d="M415 215L415 235" stroke-width="1.67" stroke="rgba(89, 64, 0, 0.37)"></path><path d="M413.33 215 a1.67 1.67 0 1 0 3.34 0 a1.67 1.67 0 1 0 -3.34 0zM413.33 235 a1.67 1.67 0 1 0 3.34 0 a1.67 1.67 0 1 0 -3.34 0z" fill="rgba(89, 64, 0, 0.37)"></path><path d="M245 25L265 25" stroke-width="1.67" stroke="rgba(89, 64, 0, 0.37)"></path><path d="M243.33 25 a1.67 1.67 0 1 0 3.34 0 a1.67 1.67 0 1 0 -3.34 0zM263.33 25 a1.67 1.67 0 1 0 3.34 0 a1.67 1.67 0 1 0 -3.34 0z" fill="rgba(89, 64, 0, 0.37)"></path><path d="M315 75L295 55" stroke-width="1.67" stroke="rgba(89, 64, 0, 0.37)"></path><path d="M313.33 75 a1.67 1.67 0 1 0 3.34 0 a1.67 1.67 0 1 0 -3.34 0zM293.33 55 a1.67 1.67 0 1 0 3.34 0 a1.67 1.67 0 1 0 -3.34 0z" fill="rgba(89, 64, 0, 0.37)"></path><path d="M275 95L265 105L225 105" stroke-width="1.67" stroke="rgba(89, 64, 0, 0.37)"></path><path d="M273.33 95 a1.67 1.67 0 1 0 3.34 0 a1.67 1.67 0 1 0 -3.34 0zM223.33 105 a1.67 1.67 0 1 0 3.34 0 a1.67 1.67 0 1 0 -3.34 0z" fill="rgba(89, 64, 0, 0.37)"></path><path d="M285 235L295 235L305 245" stroke-width="1.67" stroke="rgba(89, 64, 0, 0.37)"></path><path d="M283.33 235 a1.67 1.67 0 1 0 3.34 0 a1.67 1.67 0 1 0 -3.34 0zM303.33 245 a1.67 1.67 0 1 0 3.34 0 a1.67 1.67 0 1 0 -3.34 0z" fill="rgba(89, 64, 0, 0.37)"></path><path d="M485 265L485 245" stroke-width="1.67" stroke="rgba(89, 64, 0, 0.37)"></path><path d="M483.33 265 a1.67 1.67 0 1 0 3.34 0 a1.67 1.67 0 1 0 -3.34 0zM483.33 245 a1.67 1.67 0 1 0 3.34 0 a1.67 1.67 0 1 0 -3.34 0z" fill="rgba(89, 64, 0, 0.37)"></path><path d="M35 25L25 25L15 15" stroke-width="1.67" stroke="rgba(89, 64, 0, 0.37)"></path><path d="M33.33 25 a1.67 1.67 0 1 0 3.34 0 a1.67 1.67 0 1 0 -3.34 0zM13.33 15 a1.67 1.67 0 1 0 3.34 0 a1.67 1.67 0 1 0 -3.34 0z" fill="rgba(89, 64, 0, 0.37)"></path><path d="M45 25L45 45" stroke-width="1.67" stroke="rgba(89, 64, 0, 0.37)"></path><path d="M43.33 25 a1.67 1.67 0 1 0 3.34 0 a1.67 1.67 0 1 0 -3.34 0zM43.33 45 a1.67 1.67 0 1 0 3.34 0 a1.67 1.67 0 1 0 -3.34 0z" fill="rgba(89, 64, 0, 0.37)"></path><path d="M175 35L165 45L165 55" stroke-width="1.67" stroke="rgba(89, 64, 0, 0.37)"></path><path d="M173.33 35 a1.67 1.67 0 1 0 3.34 0 a1.67 1.67 0 1 0 -3.34 0zM163.33 55 a1.67 1.67 0 1 0 3.34 0 a1.67 1.67 0 1 0 -3.34 0z" fill="rgba(89, 64, 0, 0.37)"></path><path d="M225 195L215 185L205 185L195 195" stroke-width="1.67" stroke="rgba(89, 64, 0, 0.37)"></path><path d="M223.33 195 a1.67 1.67 0 1 0 3.34 0 a1.67 1.67 0 1 0 -3.34 0zM193.33 195 a1.67 1.67 0 1 0 3.34 0 a1.67 1.67 0 1 0 -3.34 0z" fill="rgba(89, 64, 0, 0.37)"></path><path d="M25 215L25 235" stroke-width="1.67" stroke="rgba(89, 64, 0, 0.37)"></path><path d="M23.33 215 a1.67 1.67 0 1 0 3.34 0 a1.67 1.67 0 1 0 -3.34 0zM23.33 235 a1.67 1.67 0 1 0 3.34 0 a1.67 1.67 0 1 0 -3.34 0z" fill="rgba(89, 64, 0, 0.37)"></path><path d="M75 125L75 95" stroke-width="1.67" stroke="rgba(89, 64, 0, 0.37)"></path><path d="M73.33 125 a1.67 1.67 0 1 0 3.34 0 a1.67 1.67 0 1 0 -3.34 0zM73.33 95 a1.67 1.67 0 1 0 3.34 0 a1.67 1.67 0 1 0 -3.34 0z" fill="rgba(89, 64, 0, 0.37)"></path><path d="M195 45L195 35L185 25" stroke-width="1.67" stroke="rgba(89, 64, 0, 0.37)"></path><path d="M193.33 45 a1.67 1.67 0 1 0 3.34 0 a1.67 1.67 0 1 0 -3.34 0zM183.33 25 a1.67 1.67 0 1 0 3.34 0 a1.67 1.67 0 1 0 -3.34 0z" fill="rgba(89, 64, 0, 0.37)"></path><path d="M355 165L375 185" stroke-width="1.67" stroke="rgba(89, 64, 0, 0.37)"></path><path d="M353.33 165 a1.67 1.67 0 1 0 3.34 0 a1.67 1.67 0 1 0 -3.34 0zM373.33 185 a1.67 1.67 0 1 0 3.34 0 a1.67 1.67 0 1 0 -3.34 0z" fill="rgba(89, 64, 0, 0.37)"></path></g></g><defs><mask id="SvgjsMask5205"><rect width="500" height="300" fill="#ffffff"></rect></mask><linearGradient x1="10%" y1="116.67%" x2="90%" y2="-16.67%" gradientUnits="userSpaceOnUse" id="SvgjsLinearGradient5206"><stop stop-color="rgba(201, 157, 79, 1)" offset="0.06"></stop><stop stop-color="rgba(120, 77, 0, 1)" offset="0.86"></stop></linearGradient></defs></svg>